<mxfile host="app.diagrams.net" agent="Mozilla/5.0 (Macintosh; Intel Mac OS X 10_15_7) AppleWebKit/605.1.15 (KHTML, like Gecko) Version/26.0.1 Safari/605.1.15" version="28.2.7">
  <diagram name="Page-1" id="UmJcWgQW5-kBxwZM-P0t">
    <mxGraphModel dx="867" dy="840" grid="1" gridSize="10" guides="1" tooltips="1" connect="1" arrows="1" fold="1" page="1" pageScale="1" pageWidth="850" pageHeight="1100" math="0" shadow="0">
      <root>
        <mxCell id="0" />
        <mxCell id="1" parent="0" />
        <mxCell id="2CvZfWqr4aYp74dCvFw_-1" value="&lt;font style=&quot;font-size: 16px;&quot;&gt;Wrote Lit Review&lt;/font&gt;" style="ellipse;whiteSpace=wrap;html=1;aspect=fixed;" vertex="1" parent="1">
          <mxGeometry x="425" y="120" width="80" height="80" as="geometry" />
        </mxCell>
        <mxCell id="2CvZfWqr4aYp74dCvFw_-2" value="&lt;font style=&quot;font-size: 16px;&quot;&gt;Wrote analysis&amp;nbsp;&lt;/font&gt;" style="ellipse;whiteSpace=wrap;html=1;aspect=fixed;" vertex="1" parent="1">
          <mxGeometry x="425" y="280" width="80" height="80" as="geometry" />
        </mxCell>
        <mxCell id="2CvZfWqr4aYp74dCvFw_-3" value="&lt;font style=&quot;font-size: 18px;&quot;&gt;Full draft&lt;/font&gt;" style="ellipse;whiteSpace=wrap;html=1;aspect=fixed;" vertex="1" parent="1">
          <mxGeometry x="640" y="120" width="80" height="80" as="geometry" />
        </mxCell>
        <mxCell id="2CvZfWqr4aYp74dCvFw_-5" value="&lt;font size=&quot;4&quot;&gt;Theory section&lt;/font&gt;" style="ellipse;whiteSpace=wrap;html=1;aspect=fixed;" vertex="1" parent="1">
          <mxGeometry x="180" y="120" width="80" height="80" as="geometry" />
        </mxCell>
        <mxCell id="2CvZfWqr4aYp74dCvFw_-6" value="" style="endArrow=classic;html=1;rounded=0;fontSize=13;convertToSvg=1;strokeWidth=2;exitX=1;exitY=0.5;exitDx=0;exitDy=0;entryX=0;entryY=0.5;entryDx=0;entryDy=0;" edge="1" parent="1" source="2CvZfWqr4aYp74dCvFw_-5" target="2CvZfWqr4aYp74dCvFw_-1">
          <mxGeometry width="50" height="50" relative="1" as="geometry">
            <mxPoint x="150" y="170" as="sourcePoint" />
            <mxPoint x="200" y="120" as="targetPoint" />
          </mxGeometry>
        </mxCell>
        <mxCell id="2CvZfWqr4aYp74dCvFw_-7" value="" style="endArrow=classic;html=1;rounded=0;fontSize=13;convertToSvg=1;strokeWidth=2;entryX=0;entryY=0.5;entryDx=0;entryDy=0;exitX=1;exitY=0.5;exitDx=0;exitDy=0;" edge="1" parent="1" source="2CvZfWqr4aYp74dCvFw_-1" target="2CvZfWqr4aYp74dCvFw_-3">
          <mxGeometry width="50" height="50" relative="1" as="geometry">
            <mxPoint x="380" y="160" as="sourcePoint" />
            <mxPoint x="430" y="159.5" as="targetPoint" />
          </mxGeometry>
        </mxCell>
        <mxCell id="2CvZfWqr4aYp74dCvFw_-8" value="" style="endArrow=classic;html=1;rounded=0;fontSize=13;convertToSvg=1;strokeWidth=2;exitX=0.988;exitY=0.375;exitDx=0;exitDy=0;entryX=0.088;entryY=0.763;entryDx=0;entryDy=0;entryPerimeter=0;exitPerimeter=0;" edge="1" parent="1" source="2CvZfWqr4aYp74dCvFw_-9" target="2CvZfWqr4aYp74dCvFw_-5">
          <mxGeometry width="50" height="50" relative="1" as="geometry">
            <mxPoint x="70" y="220" as="sourcePoint" />
            <mxPoint x="245" y="150" as="targetPoint" />
          </mxGeometry>
        </mxCell>
        <mxCell id="2CvZfWqr4aYp74dCvFw_-9" value="&lt;font style=&quot;font-size: 18px;&quot;&gt;Made Outline&lt;/font&gt;" style="ellipse;whiteSpace=wrap;html=1;aspect=fixed;" vertex="1" parent="1">
          <mxGeometry x="10" y="210" width="80" height="80" as="geometry" />
        </mxCell>
        <mxCell id="2CvZfWqr4aYp74dCvFw_-10" value="" style="endArrow=classic;html=1;rounded=0;fontSize=13;convertToSvg=1;strokeWidth=2;exitX=0.05;exitY=0.725;exitDx=0;exitDy=0;exitPerimeter=0;" edge="1" parent="1" source="2CvZfWqr4aYp74dCvFw_-11" target="2CvZfWqr4aYp74dCvFw_-5">
          <mxGeometry width="50" height="50" relative="1" as="geometry">
            <mxPoint x="140" y="60" as="sourcePoint" />
            <mxPoint x="240" y="60" as="targetPoint" />
          </mxGeometry>
        </mxCell>
        <mxCell id="2CvZfWqr4aYp74dCvFw_-11" value="&lt;font style=&quot;font-size: 18px;&quot;&gt;Did Reading&lt;/font&gt;" style="ellipse;whiteSpace=wrap;html=1;aspect=fixed;" vertex="1" parent="1">
          <mxGeometry x="300" y="10" width="80" height="80" as="geometry" />
        </mxCell>
        <mxCell id="2CvZfWqr4aYp74dCvFw_-12" value="" style="endArrow=classic;html=1;rounded=0;fontSize=13;convertToSvg=1;strokeWidth=2;exitX=1;exitY=0.5;exitDx=0;exitDy=0;entryX=0.388;entryY=0.038;entryDx=0;entryDy=0;entryPerimeter=0;" edge="1" parent="1" source="2CvZfWqr4aYp74dCvFw_-11" target="2CvZfWqr4aYp74dCvFw_-1">
          <mxGeometry width="50" height="50" relative="1" as="geometry">
            <mxPoint x="327" y="90" as="sourcePoint" />
            <mxPoint x="270" y="152" as="targetPoint" />
          </mxGeometry>
        </mxCell>
        <mxCell id="2CvZfWqr4aYp74dCvFw_-13" value="&lt;font style=&quot;font-size: 16px;&quot;&gt;Collected Data&lt;/font&gt;" style="ellipse;whiteSpace=wrap;html=1;aspect=fixed;" vertex="1" parent="1">
          <mxGeometry x="180" y="280" width="80" height="80" as="geometry" />
        </mxCell>
        <mxCell id="2CvZfWqr4aYp74dCvFw_-14" value="" style="endArrow=classic;html=1;rounded=0;fontSize=13;convertToSvg=1;strokeWidth=2;exitX=0.938;exitY=0.8;exitDx=0;exitDy=0;exitPerimeter=0;entryX=0.013;entryY=0.363;entryDx=0;entryDy=0;entryPerimeter=0;" edge="1" parent="1" source="2CvZfWqr4aYp74dCvFw_-9" target="2CvZfWqr4aYp74dCvFw_-13">
          <mxGeometry width="50" height="50" relative="1" as="geometry">
            <mxPoint x="90" y="260" as="sourcePoint" />
            <mxPoint x="188" y="201" as="targetPoint" />
          </mxGeometry>
        </mxCell>
        <mxCell id="2CvZfWqr4aYp74dCvFw_-15" value="" style="endArrow=classic;html=1;rounded=0;fontSize=13;convertToSvg=1;strokeWidth=2;entryX=0;entryY=0;entryDx=0;entryDy=0;" edge="1" parent="1" source="2CvZfWqr4aYp74dCvFw_-5" target="2CvZfWqr4aYp74dCvFw_-2">
          <mxGeometry width="50" height="50" relative="1" as="geometry">
            <mxPoint x="250" y="190" as="sourcePoint" />
            <mxPoint x="380" y="290" as="targetPoint" />
          </mxGeometry>
        </mxCell>
        <mxCell id="2CvZfWqr4aYp74dCvFw_-16" value="" style="endArrow=classic;html=1;rounded=0;fontSize=13;convertToSvg=1;strokeWidth=2;exitX=0.988;exitY=0.375;exitDx=0;exitDy=0;exitPerimeter=0;entryX=0;entryY=0.6;entryDx=0;entryDy=0;entryPerimeter=0;" edge="1" parent="1" target="2CvZfWqr4aYp74dCvFw_-2">
          <mxGeometry width="50" height="50" relative="1" as="geometry">
            <mxPoint x="260" y="330" as="sourcePoint" />
            <mxPoint x="354" y="373" as="targetPoint" />
          </mxGeometry>
        </mxCell>
        <mxCell id="2CvZfWqr4aYp74dCvFw_-17" value="" style="endArrow=classic;html=1;rounded=0;fontSize=13;convertToSvg=1;strokeWidth=2;exitX=1;exitY=0.5;exitDx=0;exitDy=0;entryX=0;entryY=1;entryDx=0;entryDy=0;" edge="1" parent="1" source="2CvZfWqr4aYp74dCvFw_-2" target="2CvZfWqr4aYp74dCvFw_-3">
          <mxGeometry width="50" height="50" relative="1" as="geometry">
            <mxPoint x="505" y="319.5" as="sourcePoint" />
            <mxPoint x="670" y="319.5" as="targetPoint" />
          </mxGeometry>
        </mxCell>
      </root>
    </mxGraphModel>
  </diagram>
</mxfile>
